<svg xmlns="http://www.w3.org/2000/svg" width="480" height="128" viewBox="0 0 480 128"><path fill="#FFF" d="M136.9 25.3c-20.8 0-35.7 16.4-35.7 38.7s14.9 38.7 35.7 38.7h35.7V64c.1-22.3-14.8-38.7-35.7-38.7zm20.9 62.5H137c-11.9 0-20.8-10.4-20.8-23.8s8.9-23.8 20.8-23.8 20.8 10.3 20.8 23.8v23.8zM64.1 6L44.7 39.1 25.2 6c-2.6-4.5-7.3-6-13.3-6H0v101.2h14.9V17.9l29.8 50.6 29.8-50.6v83.3h14.9V0h-12c-6 0-10.6 1.5-13.3 6zm387.8 56.9l25.9-36.1h-18.3l-16.7 23.3L426 26.8h-18.3l25.9 36.1-27.3 38.3h18.2l18.2-25.6 18.3 25.6h18.2l-27.3-38.3zm-79.8-37.6c-20.6 0-37.2 17.3-37.2 38.7s16.7 38.7 37.2 38.7c20.6 0 37.2-17.3 37.2-38.7s-16.7-38.7-37.2-38.7zm0 62.5c-12.3 0-22.3-10.7-22.3-23.8s10-23.8 22.3-23.8 22.3 10.7 22.3 23.8-10 23.8-22.3 23.8zm-83.4-62.5c-4.7 0-8.6-.2-13.4-.1V0h-14.9v102.7h28.3c20.8 0 37.2-16.4 37.2-38.7s-16.3-38.7-37.2-38.7zm0 62.5h-13.4V40.2h13.4c12.5 0 22.3 11.3 22.3 23.8.1 12.5-8.7 23.8-22.3 23.8zm-75.9-62.5h-28.3V128h14.9v-25.2c4.8 0 8.7-.1 13.4-.1 20.8 0 37.2-16.4 37.2-38.7s-16.3-38.7-37.2-38.7zm0 62.5h-13.4V40.2h13.4c13.6 0 22.3 11.3 22.3 23.8.1 12.5-9.7 23.8-22.3 23.8z"/></svg>